{
  "accessors": [
    {
      "bufferView": 2,
      "componentType": 5126,
      "count": 65532,
      "max": [
        0.0883941650390625,
        0.1749420166015625,
        0.322967529296875
      ],
      "min": [
        -0.1090240478515625,
        -0.1021270751953125,
        -0.441986083984375
      ],
      "type": "VEC3"
    },
    {
      "bufferView": 2,
      "byteOffset": 786384,
      "componentType": 5126,
      "count": 65532,
      "max": [
        1.0,
        1.0,
        0.9937037825584412
      ],
      "min": [
        -1.0,
        -1.0,
        -0.9993813037872314
      ],
      "type": "VEC3"
    },
    {
      "bufferView": 1,
      "componentType": 5126,
      "count": 65532,
      "max": [
        0.993896484375,
        0.99609375
      ],
      "min": [
        0.00048828125,
        0.000244140625
      ],
      "type": "VEC2"
    },
    {
      "bufferView": 0,
      "componentType": 5125,
      "count": 328947,
      "type": "SCALAR"
    },
    {
      "bufferView": 2,
      "byteOffset": 1572768,
      "componentType": 5126,
      "count": 65532,
      "max": [
        0.10268402099609375,
        0.1696929931640625,
        0.376495361328125
      ],
      "min": [
        -0.1084136962890625,
        -0.020580291748046875,
        -0.497650146484375
      ],
      "type": "VEC3"
    },
    {
      "bufferView": 2,
      "byteOffset": 2359152,
      "componentType": 5126,
      "count": 65532,
      "max": [
        1.0,
        1.0,
        0.9993845224380493
      ],
      "min": [
        -1.0,
        -1.0,
        -0.9998762011528015
      ],
      "type": "VEC3"
    },
    {
      "bufferView": 1,
      "byteOffset": 524256,
      "componentType": 5126,
      "count": 65532,
      "max": [
        0.990966796875,
        0.993896484375
      ],
      "min": [
        0.0,
        0.002197265625
      ],
      "type": "VEC2"
    },
    {
      "bufferView": 0,
      "byteOffset": 1315788,
      "componentType": 5125,
      "count": 300675,
      "type": "SCALAR"
    },
    {
      "bufferView": 2,
      "byteOffset": 3145536,
      "componentType": 5126,
      "count": 65532,
      "max": [
        0.1032257080078125,
        0.126800537109375,
        0.5
      ],
      "min": [
        -0.09119415283203125,
        -0.05066680908203125,
        -0.5
      ],
      "type": "VEC3"
    },
    {
      "bufferView": 2,
      "byteOffset": 3931920,
      "componentType": 5126,
      "count": 65532,
      "max": [
        1.0,
        1.0,
        0.9993845224380493
      ],
      "min": [
        -1.0,
        -1.0,
        -1.0
      ],
      "type": "VEC3"
    },
    {
      "bufferView": 1,
      "byteOffset": 1048512,
      "componentType": 5126,
      "count": 65532,
      "max": [
        0.96337890625,
        0.994140625
      ],
      "min": [
        0.000244140625,
        0.00048828125
      ],
      "type": "VEC2"
    },
    {
      "bufferView": 0,
      "byteOffset": 2518488,
      "componentType": 5125,
      "count": 311442,
      "type": "SCALAR"
    },
    {
      "bufferView": 2,
      "byteOffset": 4718304,
      "componentType": 5126,
      "count": 65532,
      "max": [
        0.11014556884765625,
        0.12213897705078125,
        0.46453857421875
      ],
      "min": [
        -0.11014556884765625,
        -0.06482696533203125,
        -0.476715087890625
      ],
      "type": "VEC3"
    },
    {
      "bufferView": 2,
      "byteOffset": 5504688,
      "componentType": 5126,
      "count": 65532,
      "max": [
        1.0,
        1.0,
        0.9864299297332764
      ],
      "min": [
        -1.0,
        -1.0,
        -0.9994426369667053
      ],
      "type": "VEC3"
    },
    {
      "bufferView": 1,
      "byteOffset": 1572768,
      "componentType": 5126,
      "count": 65532,
      "max": [
        0.982177734375,
        0.995849609375
      ],
      "min": [
        0.000244140625,
        0.00341796875
      ],
      "type": "VEC2"
    },
    {
      "bufferView": 0,
      "byteOffset": 3764256,
      "componentType": 5125,
      "count": 298872,
      "type": "SCALAR"
    },
    {
      "bufferView": 2,
      "byteOffset": 6291072,
      "componentType": 5126,
      "count": 65532,
      "max": [
        0.10268402099609375,
        0.1177978515625,
        0.45867919921875
      ],
      "min": [
        -0.11014556884765625,
        -0.11804962158203125,
        -0.4755859375
      ],
      "type": "VEC3"
    },
    {
      "bufferView": 2,
      "byteOffset": 7077456,
      "componentType": 5126,
      "count": 65532,
      "max": [
        1.0,
        1.0,
        0.9949392676353455
      ],
      "min": [
        -0.9999693036079407,
        -1.0,
        -0.9991033673286438
      ],
      "type": "VEC3"
    },
    {
      "bufferView": 1,
      "byteOffset": 2097024,
      "componentType": 5126,
      "count": 65532,
      "max": [
        0.988037109375,
        0.99560546875
      ],
      "min": [
        0.012451171875,
        0.00244140625
      ],
      "type": "VEC2"
    },
    {
      "bufferView": 0,
      "byteOffset": 4959744,
      "componentType": 5125,
      "count": 275247,
      "type": "SCALAR"
    },
    {
      "bufferView": 2,
      "byteOffset": 7863840,
      "componentType": 5126,
      "count": 65532,
      "max": [
        0.104095458984375,
        0.10012054443359375,
        0.46185302734375
      ],
      "min": [
        -0.1019439697265625,
        -0.1587066650390625,
        -0.447540283203125
      ],
      "type": "VEC3"
    },
    {
      "bufferView": 2,
      "byteOffset": 8650224,
      "componentType": 5126,
      "count": 65532,
      "max": [
        1.0,
        0.9999385476112366,
        0.9885479807853699
      ],
      "min": [
        -1.0,
        -0.9999691247940063,
        -0.9992265701293945
      ],
      "type": "VEC3"
    },
    {
      "bufferView": 1,
      "byteOffset": 2621280,
      "componentType": 5126,
      "count": 65532,
      "max": [
        1.0,
        0.992919921875
      ],
      "min": [
        0.0087890625,
        0.002197265625
      ],
      "type": "VEC2"
    },
    {
      "bufferView": 0,
      "byteOffset": 6060732,
      "componentType": 5125,
      "count": 316263,
      "type": "SCALAR"
    },
    {
      "bufferView": 2,
      "byteOffset": 9436608,
      "componentType": 5126,
      "count": 65532,
      "max": [
        0.098541259765625,
        0.005298614501953125,
        0.32440185546875
      ],
      "min": [
        -0.1091461181640625,
        -0.168914794921875,
        -0.44293212890625
      ],
      "type": "VEC3"
    },
    {
      "bufferView": 2,
      "byteOffset": 10222992,
      "componentType": 5126,
      "count": 65532,
      "max": [
        1.0,
        1.0,
        0.9988547563552856
      ],
      "min": [
        -0.9999691843986511,
        -1.0,
        -0.9991037845611572
      ],
      "type": "VEC3"
    },
    {
      "bufferView": 1,
      "byteOffset": 3145536,
      "componentType": 5126,
      "count": 65532,
      "max": [
        0.97412109375,
        0.98046875
      ],
      "min": [
        0.0,
        0.004150390625
      ],
      "type": "VEC2"
    },
    {
      "bufferView": 0,
      "byteOffset": 7325784,
      "componentType": 5125,
      "count": 320022,
      "type": "SCALAR"
    },
    {
      "bufferView": 2,
      "byteOffset": 11009376,
      "componentType": 5126,
      "count": 65532,
      "max": [
        0.09588623046875,
        0.006213665008544922,
        0.35662841796875
      ],
      "min": [
        -0.1035003662109375,
        -0.1749420166015625,
        -0.443603515625
      ],
      "type": "VEC3"
    },
    {
      "bufferView": 2,
      "byteOffset": 11795760,
      "componentType": 5126,
      "count": 65532,
      "max": [
        1.0,
        0.9999691843986511,
        0.9992257356643677
      ],
      "min": [
        -1.0,
        -1.0,
        -0.9996904730796814
      ],
      "type": "VEC3"
    },
    {
      "bufferView": 1,
      "byteOffset": 3669792,
      "componentType": 5126,
      "count": 65532,
      "max": [
        0.99853515625,
        0.995849609375
      ],
      "min": [
        0.000244140625,
        0.005126953125
      ],
      "type": "VEC2"
    },
    {
      "bufferView": 0,
      "byteOffset": 8605872,
      "componentType": 5125,
      "count": 298602,
      "type": "SCALAR"
    },
    {
      "bufferView": 2,
      "byteOffset": 12582144,
      "componentType": 5126,
      "count": 65532,
      "max": [
        0.0969085693359375,
        0.012590408325195313,
        0.46917724609375
      ],
      "min": [
        -0.095916748046875,
        -0.0904998779296875,
        -0.49957275390625
      ],
      "type": "VEC3"
    },
    {
      "bufferView": 2,
      "byteOffset": 13368528,
      "componentType": 5126,
      "count": 65532,
      "max": [
        1.0,
        1.0,
        0.9982079863548279
      ],
      "min": [
        -1.0,
        -1.0,
        -0.9998763203620911
      ],
      "type": "VEC3"
    },
    {
      "bufferView": 1,
      "byteOffset": 4194048,
      "componentType": 5126,
      "count": 65532,
      "max": [
        0.993896484375,
        0.9970703125
      ],
      "min": [
        0.0,
        0.00146484375
      ],
      "type": "VEC2"
    },
    {
      "bufferView": 0,
      "byteOffset": 9800280,
      "componentType": 5125,
      "count": 333555,
      "type": "SCALAR"
    },
    {
      "bufferView": 2,
      "byteOffset": 14154912,
      "componentType": 5126,
      "count": 47490,
      "max": [
        0.10306549072265625,
        0.1216888427734375,
        0.5
      ],
      "min": [
        -0.109710693359375,
        -0.0703582763671875,
        -0.49945068359375
      ],
      "type": "VEC3"
    },
    {
      "bufferView": 2,
      "byteOffset": 14724792,
      "componentType": 5126,
      "count": 47490,
      "max": [
        1.0,
        1.0,
        0.9998453259468079
      ],
      "min": [
        -1.0,
        -0.9999691843986511,
        -0.9998763799667358
      ],
      "type": "VEC3"
    },
    {
      "bufferView": 1,
      "byteOffset": 4718304,
      "componentType": 5126,
      "count": 47490,
      "max": [
        0.99560546875,
        0.995849609375
      ],
      "min": [
        0.0,
        0.000244140625
      ],
      "type": "VEC2"
    },
    {
      "bufferView": 0,
      "byteOffset": 11134500,
      "componentType": 5125,
      "count": 194457,
      "type": "SCALAR"
    }
  ],
  "asset": {
    "extras": {
      "author": "adhamasalah (https://sketchfab.com/adhamAsalah)",
      "license": "CC-BY-4.0 (http://creativecommons.org/licenses/by/4.0/)",
      "source": "https://sketchfab.com/3d-models/horror-ghost-character-blood-stained-spirit-ed1a90be19404450935720f7abaae471",
      "title": "Horror Ghost Character - Blood Stained Spirit"
    },
    "generator": "Sketchfab-16.75.0",
    "version": "2.0"
  },
  "bufferViews": [
    {
      "buffer": 0,
      "byteLength": 11912328,
      "name": "floatBufferViews",
      "target": 34963
    },
    {
      "buffer": 0,
      "byteLength": 5098224,
      "byteOffset": 11912328,
      "byteStride": 8,
      "name": "floatBufferViews",
      "target": 34962
    },
    {
      "buffer": 0,
      "byteLength": 15294672,
      "byteOffset": 17010552,
      "byteStride": 12,
      "name": "floatBufferViews",
      "target": 34962
    }
  ],
  "buffers": [
    {
      "byteLength": 32305224,
      "uri": "scene.bin"
    }
  ],
  "images": [
    {
      "uri": "textures/tripo_mat_2d99349c_baseColor.jpeg"
    }
  ],
  "materials": [
    {
      "doubleSided": true,
      "name": "tripo_mat_2d99349c",
      "pbrMetallicRoughness": {
        "baseColorTexture": {
          "index": 0
        },
        "metallicFactor": 0.0,
        "roughnessFactor": 0.8211145618000169
      }
    }
  ],
  "meshes": [
    {
      "name": "tripo_node_2d99349c_tripo_mat_2d99349c_0",
      "primitives": [
        {
          "attributes": {
            "NORMAL": 1,
            "POSITION": 0,
            "TEXCOORD_0": 2
          },
          "indices": 3,
          "material": 0,
          "mode": 4
        }
      ]
    },
    {
      "name": "tripo_node_2d99349c_tripo_mat_2d99349c_0",
      "primitives": [
        {
          "attributes": {
            "NORMAL": 5,
            "POSITION": 4,
            "TEXCOORD_0": 6
          },
          "indices": 7,
          "material": 0,
          "mode": 4
        }
      ]
    },
    {
      "name": "tripo_node_2d99349c_tripo_mat_2d99349c_0",
      "primitives": [
        {
          "attributes": {
            "NORMAL": 9,
            "POSITION": 8,
            "TEXCOORD_0": 10
          },
          "indices": 11,
          "material": 0,
          "mode": 4
        }
      ]
    },
    {
      "name": "tripo_node_2d99349c_tripo_mat_2d99349c_0",
      "primitives": [
        {
          "attributes": {
            "NORMAL": 13,
            "POSITION": 12,
            "TEXCOORD_0": 14
          },
          "indices": 15,
          "material": 0,
          "mode": 4
        }
      ]
    },
    {
      "name": "tripo_node_2d99349c_tripo_mat_2d99349c_0",
      "primitives": [
        {
          "attributes": {
            "NORMAL": 17,
            "POSITION": 16,
            "TEXCOORD_0": 18
          },
          "indices": 19,
          "material": 0,
          "mode": 4
        }
      ]
    },
    {
      "name": "tripo_node_2d99349c_tripo_mat_2d99349c_0",
      "primitives": [
        {
          "attributes": {
            "NORMAL": 21,
            "POSITION": 20,
            "TEXCOORD_0": 22
          },
          "indices": 23,
          "material": 0,
          "mode": 4
        }
      ]
    },
    {
      "name": "tripo_node_2d99349c_tripo_mat_2d99349c_0",
      "primitives": [
        {
          "attributes": {
            "NORMAL": 25,
            "POSITION": 24,
            "TEXCOORD_0": 26
          },
          "indices": 27,
          "material": 0,
          "mode": 4
        }
      ]
    },
    {
      "name": "tripo_node_2d99349c_tripo_mat_2d99349c_0",
      "primitives": [
        {
          "attributes": {
            "NORMAL": 29,
            "POSITION": 28,
            "TEXCOORD_0": 30
          },
          "indices": 31,
          "material": 0,
          "mode": 4
        }
      ]
    },
    {
      "name": "tripo_node_2d99349c_tripo_mat_2d99349c_0",
      "primitives": [
        {
          "attributes": {
            "NORMAL": 33,
            "POSITION": 32,
            "TEXCOORD_0": 34
          },
          "indices": 35,
          "material": 0,
          "mode": 4
        }
      ]
    },
    {
      "name": "tripo_node_2d99349c_tripo_mat_2d99349c_0",
      "primitives": [
        {
          "attributes": {
            "NORMAL": 37,
            "POSITION": 36,
            "TEXCOORD_0": 38
          },
          "indices": 39,
          "material": 0,
          "mode": 4
        }
      ]
    }
  ],
  "nodes": [
    {
      "children": [
        1
      ],
      "matrix": [
        1.0,
        0.0,
        0.0,
        0.0,
        0.0,
        2.220446049250313e-16,
        -1.0,
        0.0,
        0.0,
        1.0,
        2.220446049250313e-16,
        0.0,
        0.0,
        0.0,
        0.0,
        1.0
      ],
      "name": "Sketchfab_model"
    },
    {
      "children": [
        2
      ],
      "matrix": [
        1.0,
        0.0,
        0.0,
        0.0,
        0.0,
        0.0,
        1.0,
        0.0,
        0.0,
        -1.0,
        0.0,
        0.0,
        0.0,
        0.0,
        0.0,
        1.0
      ],
      "name": "7876d72c2c764cbab46b37b889a83a99.fbx"
    },
    {
      "children": [
        3
      ],
      "name": "RootNode"
    },
    {
      "children": [
        4,
        5,
        6,
        7,
        8,
        9,
        10,
        11,
        12,
        13
      ],
      "matrix": [
        1.0,
        0.0,
        0.0,
        0.0,
        0.0,
        -4.371139006309477e-08,
        -0.999999999999999,
        0.0,
        0.0,
        0.999999999999999,
        -4.371139006309477e-08,
        0.0,
        0.0,
        0.0,
        0.0,
        1.0
      ],
      "name": "tripo_node_2d99349c"
    },
    {
      "mesh": 0,
      "name": "tripo_node_2d99349c_tripo_mat_2d99349c_0"
    },
    {
      "mesh": 1,
      "name": "tripo_node_2d99349c_tripo_mat_2d99349c_0"
    },
    {
      "mesh": 2,
      "name": "tripo_node_2d99349c_tripo_mat_2d99349c_0"
    },
    {
      "mesh": 3,
      "name": "tripo_node_2d99349c_tripo_mat_2d99349c_0"
    },
    {
      "mesh": 4,
      "name": "tripo_node_2d99349c_tripo_mat_2d99349c_0"
    },
    {
      "mesh": 5,
      "name": "tripo_node_2d99349c_tripo_mat_2d99349c_0"
    },
    {
      "mesh": 6,
      "name": "tripo_node_2d99349c_tripo_mat_2d99349c_0"
    },
    {
      "mesh": 7,
      "name": "tripo_node_2d99349c_tripo_mat_2d99349c_0"
    },
    {
      "mesh": 8,
      "name": "tripo_node_2d99349c_tripo_mat_2d99349c_0"
    },
    {
      "mesh": 9,
      "name": "tripo_node_2d99349c_tripo_mat_2d99349c_0"
    }
  ],
  "samplers": [
    {
      "magFilter": 9729,
      "minFilter": 9987,
      "wrapS": 10497,
      "wrapT": 10497
    }
  ],
  "scene": 0,
  "scenes": [
    {
      "name": "Sketchfab_Scene",
      "nodes": [
        0
      ]
    }
  ],
  "textures": [
    {
      "sampler": 0,
      "source": 0
    }
  ]
}
